<?xml version="1.0" standalone="no"?>
<!DOCTYPE svg PUBLIC "-//W3C//DTD SVG 20010904//EN"
 "http://www.w3.org/TR/2001/REC-SVG-20010904/DTD/svg10.dtd">
<svg version="1.0" xmlns="http://www.w3.org/2000/svg"
 width="650.000000pt" height="650.000000pt" viewBox="0 0 650.000000 650.000000"
 preserveAspectRatio="xMidYMid meet">
<metadata>
Created by potrace 1.11, written by Peter Selinger 2001-2013
</metadata>
<g transform="translate(0.000000,650.000000) scale(0.100000,-0.100000)"
fill="#000000" stroke="none">
<path d="M2524 6210 c-219 -39 -410 -144 -589 -324 -253 -254 -416 -636 -480
-1123 -19 -140 -32 -488 -19 -481 5 2 83 40 173 84 91 43 246 120 344 169
l180 90 24 118 c32 161 85 322 145 442 58 117 87 158 168 241 109 111 212 149
375 139 287 -18 613 -187 956 -498 275 -250 553 -624 756 -1017 142 -275 272
-662 344 -1024 16 -83 31 -151 32 -152 1 -1 14 8 30 21 l27 24 -20 93 c-136
612 -280 1070 -490 1558 -177 413 -351 719 -550 970 -113 142 -314 340 -430
423 -108 76 -298 174 -411 211 -172 57 -374 70 -565 36z"/>
<path d="M4550 4903 c0 -4 14 -40 32 -79 l31 -70 85 -13 c102 -14 328 -71 432
-108 215 -76 415 -197 532 -322 86 -92 130 -162 165 -263 23 -64 26 -88 26
-193 -1 -102 -5 -133 -28 -205 -51 -160 -119 -276 -260 -444 -339 -407 -829
-729 -1500 -988 -178 -68 -474 -162 -610 -192 -126 -29 -438 -84 -512 -92 -40
-3 -73 -11 -73 -15 0 -5 36 -80 79 -167 76 -151 141 -254 212 -335 l34 -39
140 35 c670 169 1345 478 1860 851 291 211 593 519 760 776 154 237 239 467
253 690 9 138 -1 246 -34 350 -84 271 -267 475 -555 620 -221 111 -463 171
-766 190 -87 5 -191 12 -230 15 -40 3 -73 2 -73 -2z"/>
<path d="M3520 4790 c-441 -89 -1007 -259 -1465 -441 -334 -132 -744 -344
-954 -492 -196 -139 -392 -317 -514 -467 -430 -532 -438 -1163 -20 -1606 199
-211 495 -373 838 -458 131 -33 412 -68 590 -73 l179 -6 -50 64 c-110 139
-231 342 -329 551 l-50 107 -55 12 c-92 19 -270 79 -367 124 -276 129 -403
291 -403 516 0 49 7 125 16 167 60 293 305 664 651 990 218 205 357 309 603
454 456 269 865 414 1409 503 85 14 157 27 160 30 3 3 -8 18 -25 34 l-29 29
-185 -38z"/>
<path d="M1990 3709 c-122 -66 -192 -111 -260 -167 -94 -78 -180 -166 -180
-183 0 -45 100 -409 170 -619 344 -1036 919 -1859 1574 -2255 509 -308 1017
-284 1367 64 272 270 411 675 435 1269 4 94 3 172 -1 172 -5 0 -41 -21 -80
-47 l-72 -47 -17 -110 c-36 -226 -110 -464 -197 -639 -94 -187 -257 -372 -388
-441 -110 -58 -208 -80 -326 -73 -135 7 -239 41 -393 129 -374 213 -729 631
-1017 1199 -202 397 -376 919 -449 1344 -23 135 -56 393 -56 438 0 9 -3 17 -7
17 -5 0 -51 -23 -103 -51z"/>
</g>
</svg>
